<svg width="482.9" height="482.9" xmlns="http://www.w3.org/2000/svg">

 <g>
  <title>background</title>
  <rect fill="none" id="canvas_background" height="402" width="582" y="-1" x="-1"/>
 </g>
 <g>
  <title>Layer 1</title>
  <path id="svg_1" d="m424.035,273.458c-1.895,-2.439 -4.809,-3.866 -7.897,-3.866l-16.542,0c8.305,-9.729 13.336,-22.334 13.336,-36.099c0,-30.707 -24.982,-55.689 -55.689,-55.689l-8.75,0c9.853,-10.837 15.866,-25.224 15.866,-40.99l0,-8.836c-0.001,-70.016 -56.963,-126.978 -126.978,-126.978l-27.45,0c-5.523,0 -10,4.477 -10,10s4.477,10 10,10l13.967,0c18.831,0 34.15,15.32 34.15,34.151c0,18.831 -15.32,34.15 -34.15,34.15l-57.205,0c-29.858,0 -54.15,24.292 -54.15,54.151c0,13.03 4.627,24.998 12.322,34.352l-5.206,0c-30.708,0 -55.689,24.982 -55.689,55.689c0,13.765 5.031,26.37 13.336,36.099l-16.543,0c-3.088,0 -6.003,1.427 -7.897,3.866c-1.895,2.438 -2.556,5.616 -1.792,8.608l41.988,164.458c5.619,22.007 25.406,37.377 48.119,37.377l194.54,0c22.713,0 42.5,-15.37 48.119,-37.377l41.988,-164.458c0.763,-2.993 0.102,-6.17 -1.793,-8.608zm-257.342,-95.855c-18.831,0 -34.15,-15.32 -34.15,-34.151s15.32,-34.151 34.15,-34.151l57.205,0c29.858,0 54.15,-24.292 54.15,-54.15c0,-10.762 -3.156,-20.801 -8.59,-29.239c43.363,13.66 74.9,54.25 74.9,102.066l0,8.836c0,22.598 -18.382,40.983 -40.975,40.99l-136.69,-0.201zm-47.034,20.201l183.695,0l0.015,0l53.874,0c19.679,0 35.689,16.01 35.689,35.689s-16.01,35.689 -35.689,35.689l-237.584,0c-19.679,0 -35.689,-16.01 -35.689,-35.689s16.009,-35.689 35.689,-35.689zm244.802,243.772c-3.356,13.145 -15.175,22.325 -28.741,22.325l-14.577,0l-20.392,-0.001l-52.301,0l-20,0l-52.301,0l-20.391,0l-14.578,0c-13.566,0 -25.385,-9.18 -28.741,-22.325l-38.802,-151.983l329.627,0l-38.803,151.984z"/>
  <g id="svg_2"/>
  <g id="svg_3"/>
  <g id="svg_4"/>
  <g id="svg_5"/>
  <g id="svg_6"/>
  <g id="svg_7"/>
  <g id="svg_8"/>
  <g id="svg_9"/>
  <g id="svg_10"/>
  <g id="svg_11"/>
  <g id="svg_12"/>
  <g id="svg_13"/>
  <g id="svg_14"/>
  <g id="svg_15"/>
  <g id="svg_16"/>
 </g>
</svg>